# File produced by Open Asset Import Library (http://www.assimp.sf.net)
# (assimp v5.0.1588609223)

mtllib result.mtl

# 168 vertex positions and colors
v  0.47006142 2.5345483 -0.041160107 1 1 1
v  -0.86181343 -0.19141805 -0.041160107 1 1 1
v  -0.86181343 2.5345483 -0.041160107 1 1 1
v  0.47006142 -0.19141805 -0.041160107 1 1 1
v  -0.86181343 2.5345483 1.2408415 1 1 1
v  0.47006142 -0.19141805 1.2408415 1 1 1
v  0.47006142 2.5345483 1.2408415 1 1 1
v  -0.86181343 -0.19141805 1.2408415 1 1 1
v  -0.54396141 2.3209858 1.154899 0 0 0
v  -0.74396145 2.120986 1.154899 0 0 0
v  -0.74396145 2.3209858 1.154899 0 0 0
v  -0.54396141 2.120986 1.154899 0 0 0
v  -0.74396145 2.3209858 1.354899 0 0 0
v  -0.54396141 2.120986 1.354899 0 0 0
v  -0.54396141 2.3209858 1.354899 0 0 0
v  -0.74396145 2.120986 1.354899 0 0 0
v  -0.092480846 2.3173873 1.154899 0 0 0
v  -0.29248086 2.1173875 1.154899 0 0 0
v  -0.29248086 2.3173873 1.154899 0 0 0
v  -0.092480846 2.1173875 1.154899 0 0 0
v  -0.29248086 2.3173873 1.354899 0 0 0
v  -0.092480846 2.1173875 1.354899 0 0 0
v  -0.092480846 2.3173873 1.354899 0 0 0
v  -0.29248086 2.1173875 1.354899 0 0 0
v  0.33321387 2.3205805 1.154899 0 0 0
v  0.13321388 2.1205807 1.154899 0 0 0
v  0.13321388 2.3205805 1.154899 0 0 0
v  0.33321387 2.1205807 1.154899 0 0 0
v  0.13321388 2.3205805 1.354899 0 0 0
v  0.33321387 2.1205807 1.354899 0 0 0
v  0.33321387 2.3205805 1.354899 0 0 0
v  0.13321388 2.1205807 1.354899 0 0 0
v  -0.54038477 2.005573 1.154899 0 0 0
v  -0.74038482 1.8055731 1.154899 0 0 0
v  -0.74038482 2.005573 1.154899 0 0 0
v  -0.54038477 1.8055731 1.154899 0 0 0
v  -0.74038482 2.005573 1.354899 0 0 0
v  -0.54038477 1.8055731 1.354899 0 0 0
v  -0.54038477 2.005573 1.354899 0 0 0
v  -0.74038482 1.8055731 1.354899 0 0 0
v  -0.089631014 2.0040958 1.154899 0 0 0
v  -0.28963101 1.8040959 1.154899 0 0 0
v  -0.28963101 2.0040958 1.154899 0 0 0
v  -0.089631014 1.8040959 1.154899 0 0 0
v  -0.28963101 2.0040958 1.354899 0 0 0
v  -0.089631014 1.8040959 1.354899 0 0 0
v  -0.089631014 2.0040958 1.354899 0 0 0
v  -0.28963101 1.8040959 1.354899 0 0 0
v  0.3340452 2.002507 1.154899 0 0 0
v  0.13404521 1.8025069 1.154899 0 0 0
v  0.13404521 2.002507 1.154899 0 0 0
v  0.3340452 1.8025069 1.154899 0 0 0
v  0.13404521 2.002507 1.354899 0 0 0
v  0.3340452 1.8025069 1.354899 0 0 0
v  0.3340452 2.002507 1.354899 0 0 0
v  0.13404521 1.8025069 1.354899 0 0 0
v  -0.53999209 1.7056588 1.154899 0 0 0
v  -0.73999214 1.5056587 1.154899 0 0 0
v  -0.73999214 1.7056588 1.154899 0 0 0
v  -0.53999209 1.5056587 1.154899 0 0 0
v  -0.73999214 1.7056588 1.354899 0 0 0
v  -0.53999209 1.5056587 1.354899 0 0 0
v  -0.53999209 1.7056588 1.354899 0 0 0
v  -0.73999214 1.5056587 1.354899 0 0 0
v  -0.091404371 1.7009826 1.154899 0 0 0
v  -0.29140437 1.5009825 1.154899 0 0 0
v  -0.29140437 1.7009826 1.154899 0 0 0
v  -0.091404371 1.5009825 1.154899 0 0 0
v  -0.29140437 1.7009826 1.354899 0 0 0
v  -0.091404371 1.5009825 1.354899 0 0 0
v  -0.091404371 1.7009826 1.354899 0 0 0
v  -0.29140437 1.5009825 1.354899 0 0 0
v  0.32773572 1.7067566 1.154899 0 0 0
v  0.1277357 1.5067565 1.154899 0 0 0
v  0.1277357 1.7067566 1.154899 0 0 0
v  0.32773572 1.5067565 1.154899 0 0 0
v  0.1277357 1.7067566 1.354899 0 0 0
v  0.32773572 1.5067565 1.354899 0 0 0
v  0.32773572 1.7067566 1.354899 0 0 0
v  0.1277357 1.5067565 1.354899 0 0 0
v  -0.53620017 1.4073453 1.154899 0 0 0
v  -0.73620021 1.2073452 1.154899 0 0 0
v  -0.73620021 1.4073453 1.154899 0 0 0
v  -0.53620017 1.2073452 1.154899 0 0 0
v  -0.73620021 1.4073453 1.354899 0 0 0
v  -0.53620017 1.2073452 1.354899 0 0 0
v  -0.53620017 1.4073453 1.354899 0 0 0
v  -0.73620021 1.2073452 1.354899 0 0 0
v  -0.092289798 1.4057803 1.154899 0 0 0
v  -0.29228979 1.2057803 1.154899 0 0 0
v  -0.29228979 1.4057803 1.154899 0 0 0
v  -0.092289798 1.2057803 1.154899 0 0 0
v  -0.29228979 1.4057803 1.354899 0 0 0
v  -0.092289798 1.2057803 1.354899 0 0 0
v  -0.092289798 1.4057803 1.354899 0 0 0
v  -0.29228979 1.2057803 1.354899 0 0 0
v  0.33599868 1.4040958 1.154899 0 0 0
v  0.1359987 1.2040957 1.154899 0 0 0
v  0.1359987 1.4040958 1.154899 0 0 0
v  0.33599868 1.2040957 1.154899 0 0 0
v  0.1359987 1.4040958 1.354899 0 0 0
v  0.33599868 1.2040957 1.354899 0 0 0
v  0.33599868 1.4040958 1.354899 0 0 0
v  0.1359987 1.2040957 1.354899 0 0 0
v  -0.53718799 1.103469 1.154899 0 0 0
v  -0.73718804 0.90346897 1.154899 0 0 0
v  -0.73718804 1.103469 1.154899 0 0 0
v  -0.53718799 0.90346897 1.154899 0 0 0
v  -0.73718804 1.103469 1.354899 0 0 0
v  -0.53718799 0.90346897 1.354899 0 0 0
v  -0.53718799 1.103469 1.354899 0 0 0
v  -0.73718804 0.90346897 1.354899 0 0 0
v  -0.087873019 1.1009816 1.154899 0 0 0
v  -0.28787303 0.90098155 1.154899 0 0 0
v  -0.28787303 1.1009816 1.154899 0 0 0
v  -0.087873019 0.90098155 1.154899 0 0 0
v  -0.28787303 1.1009816 1.354899 0 0 0
v  -0.087873019 0.90098155 1.354899 0 0 0
v  -0.087873019 1.1009816 1.354899 0 0 0
v  -0.28787303 0.90098155 1.354899 0 0 0
v  0.33089402 1.0979507 1.1548995 0 0 0
v  0.13089401 0.89795071 1.1548995 0 0 0
v  0.13089401 1.0979507 1.1548995 0 0 0
v  0.33089402 0.89795071 1.1548995 0 0 0
v  0.13089401 1.0979507 1.3548995 0 0 0
v  0.33089402 0.89795071 1.3548995 0 0 0
v  0.33089402 1.0979507 1.3548995 0 0 0
v  0.13089401 0.89795071 1.3548995 0 0 0
v  -0.52792269 0.79515928 1.154899 0 0 0
v  -0.72792274 0.59515923 1.154899 0 0 0
v  -0.72792274 0.79515928 1.154899 0 0 0
v  -0.52792269 0.59515923 1.154899 0 0 0
v  -0.72792274 0.79515928 1.354899 0 0 0
v  -0.52792269 0.59515923 1.354899 0 0 0
v  -0.52792269 0.79515928 1.354899 0 0 0
v  -0.72792274 0.59515923 1.354899 0 0 0
v  -0.091318034 0.79402554 1.154899 0 0 0
v  -0.29131803 0.59402549 1.154899 0 0 0
v  -0.29131803 0.79402554 1.154899 0 0 0
v  -0.091318034 0.59402549 1.154899 0 0 0
v  -0.29131803 0.79402554 1.354899 0 0 0
v  -0.091318034 0.59402549 1.354899 0 0 0
v  -0.091318034 0.79402554 1.354899 0 0 0
v  -0.29131803 0.59402549 1.354899 0 0 0
v  0.33074945 0.79325521 1.154899 0 0 0
v  0.13074946 0.59325516 1.154899 0 0 0
v  0.13074946 0.79325521 1.154899 0 0 0
v  0.33074945 0.59325516 1.154899 0 0 0
v  0.13074946 0.79325521 1.354899 0 0 0
v  0.33074945 0.59325516 1.354899 0 0 0
v  0.33074945 0.79325521 1.354899 0 0 0
v  0.13074946 0.59325516 1.354899 0 0 0
v  0.11107236 0.31659198 1.154899 0 0 0
v  -0.48806024 -0.19141811 1.154899 0 0 0
v  -0.48806024 0.31659198 1.154899 0 0 0
v  0.11107236 -0.19141811 1.154899 0 0 0
v  -0.48806024 0.31659198 1.354899 0 0 0
v  0.11107236 -0.19141811 1.354899 0 0 0
v  0.11107236 0.31659198 1.354899 0 0 0
v  -0.48806024 -0.19141811 1.354899 0 0 0
v  0.11258462 0.012029111 1.211524 0 0 0
v  -0.48806021 -0.18797089 1.211524 0 0 0
v  -0.48806021 0.012029111 1.211524 0 0 0
v  0.11258462 -0.18797089 1.211524 0 0 0
v  -0.48806021 0.012029111 1.4115241 0 0 0
v  0.11258462 -0.18797089 1.4115241 0 0 0
v  0.11258462 0.012029111 1.4115241 0 0 0
v  -0.48806021 -0.18797089 1.4115241 0 0 0

# 12 UV coordinates
vt 0.10342143 0.66883814 0
vt 0.34724575 0.57278681 0
vt 0.0031885952 0.26501787 0
vt 0.31397492 0.77116311 0
vt 0.68706322 0.82694471 0
vt 0.99998307 0.68823093 0
vt 0.65806055 0.59627295 0
vt 0.87023246 0.99989986 0
vt 9.380281e-05 0.99994797 0
vt 0.43525594 0.95751137 0
vt 0.45045856 0.947698 0
vt 0.65250665 0.5976249 0

# 18 vertex normals
vn 0 0 -0.0025325918
vn 0 0 0.0025325918
vn 0.0026311162 0 0
vn -0.0026311162 0 0
vn 0 0.0049486896 0
vn 0 -0.0049486896 0
vn 0 0 -0.001
vn 0 0 0.001
vn 0.001 0 0
vn -0.001 0 0
vn 0 0.001 0
vn 0 -0.001 0
vn 0.0029956629 0 0
vn -0.0029956629 0 0
vn 0 0.0025400503 0
vn 0 -0.0025400503 0
vn 0.0030032243 0 0
vn -0.0030032243 0 0

# Mesh 'mesh_id40' with 12 faces
g mesh_id40
usemtl 116
f  1/1/1 2/2/1 3/3/1
f  1/1/1 4/4/1 2/2/1
f  5/5/2 6/6/2 7/7/2
f  5/5/2 8/8/2 6/6/2
f  7/9/3 4/4/3 1/1/3
f  7/9/3 6/10/3 4/4/3
f  3/11/4 8/8/4 5/5/4
f  3/3/4 2/2/4 8/12/4
f  3/3/5 7/9/5 1/1/5
f  3/11/5 5/5/5 7/7/5
f  8/12/6 4/4/6 6/10/6
f  8/12/6 2/2/6 4/4/6

# Mesh 'mesh_id53' with 12 faces
g mesh_id53
usemtl 118
f  9//7 10//7 11//7
f  9//7 12//7 10//7
f  13//8 14//8 15//8
f  13//8 16//8 14//8
f  15//9 12//9 9//9
f  15//9 14//9 12//9
f  11//10 16//10 13//10
f  11//10 10//10 16//10
f  11//11 15//11 9//11
f  11//11 13//11 15//11
f  16//12 12//12 14//12
f  16//12 10//12 12//12

# Mesh 'mesh_id66' with 12 faces
g mesh_id66
usemtl 118
f  17//7 18//7 19//7
f  17//7 20//7 18//7
f  21//8 22//8 23//8
f  21//8 24//8 22//8
f  23//9 20//9 17//9
f  23//9 22//9 20//9
f  19//10 24//10 21//10
f  19//10 18//10 24//10
f  19//11 23//11 17//11
f  19//11 21//11 23//11
f  24//12 20//12 22//12
f  24//12 18//12 20//12

# Mesh 'mesh_id72' with 12 faces
g mesh_id72
usemtl 118
f  25//7 26//7 27//7
f  25//7 28//7 26//7
f  29//8 30//8 31//8
f  29//8 32//8 30//8
f  31//9 28//9 25//9
f  31//9 30//9 28//9
f  27//10 32//10 29//10
f  27//10 26//10 32//10
f  27//11 31//11 25//11
f  27//11 29//11 31//11
f  32//12 28//12 30//12
f  32//12 26//12 28//12

# Mesh 'mesh_id73' with 12 faces
g mesh_id73
usemtl 118
f  33//7 34//7 35//7
f  33//7 36//7 34//7
f  37//8 38//8 39//8
f  37//8 40//8 38//8
f  39//9 36//9 33//9
f  39//9 38//9 36//9
f  35//10 40//10 37//10
f  35//10 34//10 40//10
f  35//11 39//11 33//11
f  35//11 37//11 39//11
f  40//12 36//12 38//12
f  40//12 34//12 36//12

# Mesh 'mesh_id74' with 12 faces
g mesh_id74
usemtl 118
f  41//7 42//7 43//7
f  41//7 44//7 42//7
f  45//8 46//8 47//8
f  45//8 48//8 46//8
f  47//9 44//9 41//9
f  47//9 46//9 44//9
f  43//10 48//10 45//10
f  43//10 42//10 48//10
f  43//11 47//11 41//11
f  43//11 45//11 47//11
f  48//12 44//12 46//12
f  48//12 42//12 44//12

# Mesh 'mesh_id75' with 12 faces
g mesh_id75
usemtl 118
f  49//7 50//7 51//7
f  49//7 52//7 50//7
f  53//8 54//8 55//8
f  53//8 56//8 54//8
f  55//9 52//9 49//9
f  55//9 54//9 52//9
f  51//10 56//10 53//10
f  51//10 50//10 56//10
f  51//11 55//11 49//11
f  51//11 53//11 55//11
f  56//12 52//12 54//12
f  56//12 50//12 52//12

# Mesh 'mesh_id76' with 12 faces
g mesh_id76
usemtl 118
f  57//7 58//7 59//7
f  57//7 60//7 58//7
f  61//8 62//8 63//8
f  61//8 64//8 62//8
f  63//9 60//9 57//9
f  63//9 62//9 60//9
f  59//10 64//10 61//10
f  59//10 58//10 64//10
f  59//11 63//11 57//11
f  59//11 61//11 63//11
f  64//12 60//12 62//12
f  64//12 58//12 60//12

# Mesh 'mesh_id77' with 12 faces
g mesh_id77
usemtl 118
f  65//7 66//7 67//7
f  65//7 68//7 66//7
f  69//8 70//8 71//8
f  69//8 72//8 70//8
f  71//9 68//9 65//9
f  71//9 70//9 68//9
f  67//10 72//10 69//10
f  67//10 66//10 72//10
f  67//11 71//11 65//11
f  67//11 69//11 71//11
f  72//12 68//12 70//12
f  72//12 66//12 68//12

# Mesh 'mesh_id78' with 12 faces
g mesh_id78
usemtl 118
f  73//7 74//7 75//7
f  73//7 76//7 74//7
f  77//8 78//8 79//8
f  77//8 80//8 78//8
f  79//9 76//9 73//9
f  79//9 78//9 76//9
f  75//10 80//10 77//10
f  75//10 74//10 80//10
f  75//11 79//11 73//11
f  75//11 77//11 79//11
f  80//12 76//12 78//12
f  80//12 74//12 76//12

# Mesh 'mesh_id79' with 12 faces
g mesh_id79
usemtl 118
f  81//7 82//7 83//7
f  81//7 84//7 82//7
f  85//8 86//8 87//8
f  85//8 88//8 86//8
f  87//9 84//9 81//9
f  87//9 86//9 84//9
f  83//10 88//10 85//10
f  83//10 82//10 88//10
f  83//11 87//11 81//11
f  83//11 85//11 87//11
f  88//12 84//12 86//12
f  88//12 82//12 84//12

# Mesh 'mesh_id80' with 12 faces
g mesh_id80
usemtl 118
f  89//7 90//7 91//7
f  89//7 92//7 90//7
f  93//8 94//8 95//8
f  93//8 96//8 94//8
f  95//9 92//9 89//9
f  95//9 94//9 92//9
f  91//10 96//10 93//10
f  91//10 90//10 96//10
f  91//11 95//11 89//11
f  91//11 93//11 95//11
f  96//12 92//12 94//12
f  96//12 90//12 92//12

# Mesh 'mesh_id81' with 12 faces
g mesh_id81
usemtl 118
f  97//7 98//7 99//7
f  97//7 100//7 98//7
f  101//8 102//8 103//8
f  101//8 104//8 102//8
f  103//9 100//9 97//9
f  103//9 102//9 100//9
f  99//10 104//10 101//10
f  99//10 98//10 104//10
f  99//11 103//11 97//11
f  99//11 101//11 103//11
f  104//12 100//12 102//12
f  104//12 98//12 100//12

# Mesh 'mesh_id82' with 12 faces
g mesh_id82
usemtl 118
f  105//7 106//7 107//7
f  105//7 108//7 106//7
f  109//8 110//8 111//8
f  109//8 112//8 110//8
f  111//9 108//9 105//9
f  111//9 110//9 108//9
f  107//10 112//10 109//10
f  107//10 106//10 112//10
f  107//11 111//11 105//11
f  107//11 109//11 111//11
f  112//12 108//12 110//12
f  112//12 106//12 108//12

# Mesh 'mesh_id83' with 12 faces
g mesh_id83
usemtl 118
f  113//7 114//7 115//7
f  113//7 116//7 114//7
f  117//8 118//8 119//8
f  117//8 120//8 118//8
f  119//9 116//9 113//9
f  119//9 118//9 116//9
f  115//10 120//10 117//10
f  115//10 114//10 120//10
f  115//11 119//11 113//11
f  115//11 117//11 119//11
f  120//12 116//12 118//12
f  120//12 114//12 116//12

# Mesh 'mesh_id84' with 12 faces
g mesh_id84
usemtl 118
f  121//7 122//7 123//7
f  121//7 124//7 122//7
f  125//8 126//8 127//8
f  125//8 128//8 126//8
f  127//9 124//9 121//9
f  127//9 126//9 124//9
f  123//10 128//10 125//10
f  123//10 122//10 128//10
f  123//11 127//11 121//11
f  123//11 125//11 127//11
f  128//12 124//12 126//12
f  128//12 122//12 124//12

# Mesh 'mesh_id85' with 12 faces
g mesh_id85
usemtl 118
f  129//7 130//7 131//7
f  129//7 132//7 130//7
f  133//8 134//8 135//8
f  133//8 136//8 134//8
f  135//9 132//9 129//9
f  135//9 134//9 132//9
f  131//10 136//10 133//10
f  131//10 130//10 136//10
f  131//11 135//11 129//11
f  131//11 133//11 135//11
f  136//12 132//12 134//12
f  136//12 130//12 132//12

# Mesh 'mesh_id86' with 12 faces
g mesh_id86
usemtl 118
f  137//7 138//7 139//7
f  137//7 140//7 138//7
f  141//8 142//8 143//8
f  141//8 144//8 142//8
f  143//9 140//9 137//9
f  143//9 142//9 140//9
f  139//10 144//10 141//10
f  139//10 138//10 144//10
f  139//11 143//11 137//11
f  139//11 141//11 143//11
f  144//12 140//12 142//12
f  144//12 138//12 140//12

# Mesh 'mesh_id87' with 12 faces
g mesh_id87
usemtl 118
f  145//7 146//7 147//7
f  145//7 148//7 146//7
f  149//8 150//8 151//8
f  149//8 152//8 150//8
f  151//9 148//9 145//9
f  151//9 150//9 148//9
f  147//10 152//10 149//10
f  147//10 146//10 152//10
f  147//11 151//11 145//11
f  147//11 149//11 151//11
f  152//12 148//12 150//12
f  152//12 146//12 148//12

# Mesh 'mesh_id90' with 12 faces
g mesh_id90
usemtl 120
f  153//7 154//7 155//7
f  153//7 156//7 154//7
f  157//8 158//8 159//8
f  157//8 160//8 158//8
f  159//13 156//13 153//13
f  159//13 158//13 156//13
f  155//14 160//14 157//14
f  155//14 154//14 160//14
f  155//15 159//15 153//15
f  155//15 157//15 159//15
f  160//16 156//16 158//16
f  160//16 154//16 156//16

# Mesh 'mesh_id91' with 12 faces
g mesh_id91
usemtl 122
f  161//7 162//7 163//7
f  161//7 164//7 162//7
f  165//8 166//8 167//8
f  165//8 168//8 166//8
f  167//17 164//17 161//17
f  167//17 166//17 164//17
f  163//18 168//18 165//18
f  163//18 162//18 168//18
f  163//11 167//11 161//11
f  163//11 165//11 167//11
f  168//12 164//12 166//12
f  168//12 162//12 164//12

