# File produced by Open Asset Import Library (http://www.assimp.sf.net)
# (assimp v5.0.1588609223)

mtllib result.mtl

# 16 vertex positions
v  0.076558486 0.36934435 -0.42406827
v  -0.23154376 0.36934441 -0.6338315
v  0.076558664 0.36934441 -0.6338312
v  -0.23154394 0.36934435 -0.42406851
v  0.076558664 0.45963579 -0.6338312
v  -0.23154394 0.45963573 -0.42406851
v  0.076558486 0.45963573 -0.42406824
v  -0.23154376 0.45963579 -0.63383144
v  -0.23154353 0.46042317 -0.63493627
v  0.07555446 0.46042344 -0.63493598
v  0.07555443 0.36996433 -0.75148088
v  -0.23154323 0.36996406 -0.75148118
v  0.075554132 0.36996451 -0.44069436
v  -0.23154351 0.36996424 -0.44069466
v  -0.2315436 0.46042323 -0.55723965
v  0.075554401 0.46042347 -0.55723935

# 22 UV coordinates
vt 0.29703501 0.89781201 0
vt 0.29703501 0.84881198 0
vt 0.64351797 0.84881198 0
vt 0.64351797 0.89781201 0
vt 0.0099999998 0.82239902 0
vt 0.0099999998 0.773399 0
vt 0.99000001 0.773399 0
vt 0.99000001 0.82239902 0
vt 0.35648301 0.97322398 0
vt 0.0099999998 0.97322398 0
vt 0.0099999998 0.92422402 0
vt 0.35648301 0.92422402 0
vt 0.0099999998 0.84881198 0
vt 0.0099999998 0.89781201 0
vt 0.64354295 0.37108183 0
vt 0.35650703 0.37108183 0
vt 0.010024846 0.024598777 0
vt 0.99002498 0.024598897 0
vt 0.99002498 0.40629792 0
vt 0.64354295 0.75278091 0
vt 0.35650697 0.75278091 0
vt 0.010024965 0.40629792 0

# 12 vertex normals
vn 1.3454473e-11 -0.00045145696 -1.0763568e-10
vn -1.3454473e-11 0.00045145696 1.0763568e-10
vn -9.3771346e-10 -2.8131414e-10 0.0010488147
vn 9.3771346e-10 2.8131414e-10 -0.0010488147
vn 0.0015405122 9.1821724e-11 1.3314144e-09
vn -0.0015405122 -9.1821724e-11 -1.3314144e-09
vn 3.362165e-10 0.00085285521 -0.0010987973
vn 1.0064645e-09 -0.0012061202 8.1223428e-10
vn -1.7595723e-09 0.00085285609 0.0010987966
vn -1.0064645e-09 0.0012061202 -7.6481182e-10
vn 0.015354882 1.2577548e-08 1.4643557e-08
vn -0.015354882 -1.2941771e-08 -1.4643557e-08

# Mesh 'mesh_id6' with 12 faces
g mesh_id6
usemtl 229
f  1//1 2//1 3//1
f  1//1 4//1 2//1
f  5//2 6//2 7//2
f  5//2 8//2 6//2
f  7//3 4//3 1//3
f  7//3 6//3 4//3
f  3//4 8//4 5//4
f  3//4 2//4 8//4
f  3//5 7//5 1//5
f  3//5 5//5 7//5
f  8//6 4//6 6//6
f  8//6 2//6 4//6

# Mesh 'mesh_id10' with 12 faces
g mesh_id10
usemtl 230
f  9/1/7 10/2/7 11/3/7
f  11/3/7 12/4/7 9/1/7
f  12/5/8 11/6/8 13/7/8
f  13/7/8 14/8/8 12/5/8
f  15/9/9 14/10/9 13/11/9
f  13/11/9 16/12/9 15/9/9
f  16/13/10 10/2/10 9/1/10
f  9/1/10 15/14/10 16/13/10
f  10/15/11 16/16/11 13/17/11
f  13/17/11 11/18/11 10/15/11
f  14/19/12 15/20/12 9/21/12
f  9/21/12 12/22/12 14/19/12

